<svg xmlns="http://www.w3.org/2000/svg" viewBox="0 0 64 64">
  <circle cx="32" cy="32" r="30" fill="#064E3B"/>
  <path d="M32 14c-1.5 0-2.8.4-3.8 1.2-.8.6-1.4 1.4-1.8 2.3-.3.7-.4 1.5-.4 2.3v2.2h-2c-1.1 0-2 .9-2 2v18c0 1.1.9 2 2 2h16c1.1 0 2-.9 2-2V24c0-1.1-.9-2-2-2h-2v-2.2c0-.8-.1-1.6-.4-2.3-.4-.9-1-1.7-1.8-2.3-1-.8-2.3-1.2-3.8-1.2z" fill="none" stroke="#D97706" stroke-width="1.5"/>
  <path d="M20 28h24M20 33h24M20 38h24" stroke="#ECFDF5" stroke-width="1.5" stroke-linecap="round" opacity="0.8"/>
  <path d="M28 16v-2a4 4 0 0 1 8 0v2" stroke="#D97706" stroke-width="2" fill="none" stroke-linecap="round"/>
  <text x="32" y="52" text-anchor="middle" fill="#D97706" font-family="serif" font-weight="700" font-size="10">IA</text>
</svg>
